<svg width="81" height="88" viewBox="0 0 81 88" fill="none" xmlns="http://www.w3.org/2000/svg">
<path d="M80.9959 25.7449C80.9952 24.2725 80.6679 22.9714 80.0058 21.8548C79.3555 20.7567 78.3816 19.8364 77.0752 19.1087C66.2919 13.128 55.4981 7.1655 44.7183 1.17865C41.8121 -0.435204 38.9943 -0.376369 36.1097 1.26065C31.8176 3.69545 10.3285 15.5378 3.9251 19.1054C1.28798 20.5738 0.00475386 22.8211 0.00412001 25.7422C0 37.7698 0.00412001 49.7972 0 61.8251C0.000633847 63.2652 0.314071 64.541 0.946968 65.6409C1.59761 66.7722 2.58515 67.7178 3.92161 68.4619C10.3254 72.0295 31.8172 83.8709 36.1084 86.3063C38.9943 87.9443 41.8121 88.0028 44.7192 86.3884C55.4994 80.4012 66.2938 74.439 77.0787 68.4583C78.4152 67.7145 79.4027 66.7682 80.0534 65.6378C80.6853 64.538 80.9994 63.2622 81 61.8218C81 61.8218 81 37.7729 80.9959 25.7449Z" fill="url(#paint0_linear_20_820)"/>
<path d="M40.6235 43.6663L0.946503 65.6407C1.59715 66.772 2.58468 67.7176 3.92115 68.4618C10.3249 72.0294 31.8168 83.8708 36.1079 86.3062C38.9938 87.9441 41.8116 88.0026 44.7187 86.3882C55.4989 80.401 66.2933 74.4389 77.0782 68.4581C78.4147 67.7143 79.4022 66.768 80.0529 65.6377L40.6235 43.6663Z" fill="url(#paint1_linear_20_820)"/>
<path d="M28.8715 50.1753C31.1803 54.0523 35.5206 56.6673 40.4994 56.6673C45.509 56.6673 49.874 54.0191 52.1711 50.1006L40.6233 43.6663L28.8715 50.1753Z" fill="#FF2079"/>
<path d="M80.9954 25.7446C80.9947 24.2722 80.6674 22.9711 80.0053 21.8545L40.6234 43.6662L80.0528 65.6376C80.6848 64.5377 80.9989 63.2619 80.9995 61.8215C80.9995 61.8215 80.9995 37.7726 80.9954 25.7446Z" fill="url(#paint2_linear_20_820)"/>
<path d="M78.8275 45.2369H75.7464V48.2012H72.6646V45.2369H69.5838V42.2735H72.6646V39.3098H75.7464V42.2735H78.8275V45.2369ZM67.5847 45.2369H64.5038V48.2012H61.4227V45.2369H58.3416V42.2735H61.4227V39.3098H64.5038V42.2735H67.5847V45.2369Z" fill="url(#paint3_linear_20_820)"/>
<path d="M52.1718 50.1006C49.8747 54.0191 45.5097 56.6673 40.5001 56.6673C35.5212 56.6673 31.181 54.0523 28.8722 50.1753C27.7123 48.2299 27.1032 46.0259 27.1056 43.7833C27.1056 36.6679 33.1028 30.8997 40.5001 30.8997C45.447 30.8997 49.7644 33.482 52.0846 37.3194L63.7921 30.8347C59.1387 23.1081 50.4509 17.9099 40.5001 17.9099C25.644 17.9099 13.6012 29.494 13.6012 43.7833C13.6012 48.4712 14.8977 52.8674 17.1637 56.6594C21.8054 64.4268 30.518 69.6571 40.5001 69.6571C50.5006 69.6571 59.2268 64.4058 63.8618 56.6155L52.1718 50.1006Z" fill="url(#paint4_radial_20_820)"/>
<defs>
<linearGradient id="paint0_linear_20_820" x1="1.38643e-07" y1="66.5" x2="59" y2="-3.5" gradientUnits="userSpaceOnUse">
<stop stop-color="#FF2079"/>
<stop offset="1" stop-color="#991349"/>
</linearGradient>
<linearGradient id="paint1_linear_20_820" x1="40.4997" y1="43.6663" x2="40.4997" y2="87.5674" gradientUnits="userSpaceOnUse">
<stop stop-color="#FF0066"/>
<stop offset="1" stop-color="#99003D"/>
</linearGradient>
<linearGradient id="paint2_linear_20_820" x1="48.5" y1="34" x2="100.5" y2="36" gradientUnits="userSpaceOnUse">
<stop stop-color="#FF2079"/>
<stop offset="1" stop-color="#991349"/>
</linearGradient>
<linearGradient id="paint3_linear_20_820" x1="68.5846" y1="39.3098" x2="74.5" y2="52.5" gradientUnits="userSpaceOnUse">
<stop stop-color="#21C49D"/>
<stop offset="1" stop-color="#999999"/>
</linearGradient>
<radialGradient id="paint4_radial_20_820" cx="0" cy="0" r="1" gradientUnits="userSpaceOnUse" gradientTransform="translate(38.7315 43.7835) rotate(113.936) scale(60.9588 59.2077)">
<stop offset="0.305417" stop-color="#21C49D"/>
<stop offset="1"/>
</radialGradient>
</defs>
</svg>
