<svg width="80" height="91" viewBox="0 0 80 91" fill="none" xmlns="http://www.w3.org/2000/svg">
<path d="M79.6768 23.0259L79.8991 22.8787C79.4544 22.0695 78.7874 21.3339 78.1203 20.966L42.3213 0.514956C41.7284 0.14713 40.9131 0 40.0237 0C39.1343 0 38.319 0.220695 37.726 0.514956L2.14942 21.0396C0.889415 21.7753 0 23.6144 0 25.0121V65.9879C0 66.7971 0.148236 67.6799 0.667061 68.4891L0.518825 68.5627C0.889415 69.1512 1.40824 69.6661 1.92707 69.9604L37.6519 90.485C38.2449 90.8529 39.0602 91 39.9496 91C40.839 91 41.6543 90.7793 42.2472 90.485L77.8238 69.9604C79.0838 69.2247 79.9733 67.3856 79.9733 65.9879V24.9386C80.0474 24.35 79.9733 23.688 79.6768 23.0259ZM40.0237 63.4867C46.7684 63.4867 52.6979 59.8084 55.8108 54.3646L65.372 59.9555C60.332 68.6362 50.8449 74.5214 40.0237 74.5214C23.866 74.5214 10.7471 61.5004 10.7471 45.4632C10.7471 29.426 23.866 16.405 40.0237 16.405C50.919 16.405 60.4061 22.3638 65.4461 31.118L55.8108 36.6354C52.6979 31.118 46.7684 27.4398 40.0237 27.4398C30.0178 27.4398 21.8648 35.5319 21.8648 45.4632C21.8648 55.3945 30.0178 63.4867 40.0237 63.4867Z" fill="url(#paint0_linear_20_819)"/>
<defs>
<linearGradient id="paint0_linear_20_819" x1="-7" y1="14.5" x2="80" y2="78.5" gradientUnits="userSpaceOnUse">
<stop stop-color="#FF0066"/>
<stop offset="1" stop-color="#1EB38F"/>
</linearGradient>
</defs>
</svg>
