<svg width="80" height="91" viewBox="0 0 80 91" fill="none" xmlns="http://www.w3.org/2000/svg">
<path d="M7.28023 81.659L0 0H80L72.7125 81.6466L39.9515 90.7292L7.28023 81.659Z" fill="#FF0066"/>
<path d="M40.0016 83.7873L66.4745 76.4477L72.7026 6.67651H40.0016V83.7873Z" fill="#E61367"/>
<path d="M40.0016 36.2613H53.2544L54.1696 26.0057H40.0016V15.9905H65.1153L64.8749 18.6777L62.4129 46.2765H40.0016V36.2613Z" fill="#21C49D"/>
<path d="M40.0606 62.2714L40.0164 62.2844L28.8629 59.2728L28.1497 51.2852H18.0975L19.5001 67.0107L40.015 72.7044L40.0606 72.6914V62.2714Z" fill="#08B78C"/>
<path d="M52.4017 45.8533L51.1953 59.2653L40.0251 62.2805V72.7005L60.5566 67.0104L60.7073 65.3182L62.4495 45.8533H52.4017Z" fill="#21C49D"/>
<path d="M40.0352 15.9905V26.0057H15.8441L15.6435 23.7551L15.1873 18.6777L14.9476 15.9905H40.0352ZM40.0012 36.2627V46.278H28.9882L28.7876 44.0274L28.3307 38.9499L28.0917 36.2627H40.0012Z" fill="#08B78C"/>
</svg>
