<svg width="81" height="112" viewBox="0 0 81 112" fill="none" xmlns="http://www.w3.org/2000/svg">
<mask id="mask0_20_827" style="mask-type:luminance" maskUnits="userSpaceOnUse" x="0" y="0" width="81" height="112">
<path d="M0 0H81V111.375H0V0Z" fill="white"/>
</mask>
<g mask="url(#mask0_20_827)">
<path fill-rule="evenodd" clip-rule="evenodd" d="M2.05893 59.8419C2.23793 62.9356 5.37053 61.5213 6.80257 60.549C8.14511 59.5767 8.59263 60.3722 8.68213 58.516C8.77163 57.2785 8.86114 56.1294 8.86114 54.8919C6.80257 54.7151 4.565 55.1571 2.86445 56.3946C2.05893 57.0133 0.358373 59.0463 2.05893 59.8419Z" fill="#8DECB4"/>
</g>
<mask id="mask1_20_827" style="mask-type:luminance" maskUnits="userSpaceOnUse" x="0" y="0" width="81" height="112">
<path d="M0 0H81V111.375H0V0Z" fill="white"/>
</mask>
<g mask="url(#mask1_20_827)">
<path d="M3.75991 62.0515C3.13339 62.0515 1.96985 61.7863 1.79085 60.0184C1.25383 59.6649 1.07483 59.2229 1.07483 58.9577C0.985323 57.897 2.14886 56.6595 2.77538 56.2175C4.20742 55.1568 6.08698 54.6265 8.05604 54.6265H9.21958V54.8916C9.30908 55.864 9.21958 56.8363 9.13007 57.7202C9.13007 57.9854 9.13007 58.2506 9.04057 58.5157C8.95107 59.8416 8.68256 60.0184 8.05604 60.2836C7.78753 60.372 7.51903 60.4604 7.07151 60.814C6.624 61.0791 5.10245 62.0515 3.75991 62.0515ZM8.05604 55.1568C6.17648 55.1568 4.47593 55.6872 3.13339 56.6595C2.50687 57.1015 1.61184 58.1622 1.70135 58.8693C1.70135 59.1345 1.88035 59.3997 2.23836 59.5765L2.41737 59.6649V59.8416C2.50687 61.2559 3.22289 61.4327 3.75991 61.4327C4.65494 61.4327 5.90797 60.814 6.7135 60.2836C7.25052 59.93 7.60853 59.8416 7.87704 59.7533C8.32455 59.5765 8.41405 59.5765 8.50355 58.5157C8.50355 58.2506 8.50356 57.9854 8.59306 57.7202C8.68256 56.9247 8.68256 56.0408 8.68256 55.2452C8.41405 55.1568 8.23505 55.1568 8.05604 55.1568Z" fill="black"/>
</g>
<mask id="mask2_20_827" style="mask-type:luminance" maskUnits="userSpaceOnUse" x="0" y="0" width="81" height="112">
<path d="M0 0H81V111.375H0V0Z" fill="white"/>
</mask>
<g mask="url(#mask2_20_827)">
<path fill-rule="evenodd" clip-rule="evenodd" d="M2.05872 59.8419C2.50623 59.6651 3.04325 59.5767 3.31175 59.1348L2.05872 59.8419Z" fill="#C6B198"/>
</g>
<mask id="mask3_20_827" style="mask-type:luminance" maskUnits="userSpaceOnUse" x="0" y="0" width="81" height="112">
<path d="M0 0H81V111.375H0V0Z" fill="white"/>
</mask>
<g mask="url(#mask3_20_827)">
<path d="M2.05863 60.1074C1.96912 60.1074 1.79012 60.019 1.79012 59.9306C1.70061 59.7538 1.79012 59.577 1.96912 59.577C2.05863 59.577 2.14813 59.4886 2.14813 59.4886C2.50614 59.3118 2.86415 59.2234 3.04316 58.9583C3.13266 58.8699 3.31167 58.7815 3.49067 58.8699C3.58017 58.9583 3.66968 59.135 3.58017 59.3118C3.22216 59.7538 2.77465 59.9306 2.41664 60.019L2.23763 60.1074H2.05863Z" fill="black"/>
</g>
<mask id="mask4_20_827" style="mask-type:luminance" maskUnits="userSpaceOnUse" x="0" y="0" width="81" height="112">
<path d="M0 0H81V111.375H0V0Z" fill="white"/>
</mask>
<g mask="url(#mask4_20_827)">
<path fill-rule="evenodd" clip-rule="evenodd" d="M9.3981 22.4518C-2.77427 19.0929 6.26551 3.8009 16.0213 10.0768L9.3981 22.4518Z" fill="#8DECB4"/>
</g>
<mask id="mask5_20_827" style="mask-type:luminance" maskUnits="userSpaceOnUse" x="0" y="0" width="81" height="112">
<path d="M0 0H81V111.375H0V0Z" fill="white"/>
</mask>
<g mask="url(#mask5_20_827)">
<path d="M9.57719 22.8055L9.30869 22.7171C3.04349 20.9493 3.133 16.5296 3.312 15.2037C3.75951 11.8448 6.98161 8.30908 11.2777 8.30908C12.9783 8.30908 14.5893 8.83944 16.2004 9.90015L16.4689 10.0769L9.57719 22.8055ZM11.2777 8.92783C7.25012 8.92783 4.29653 12.1984 3.84902 15.2921C3.4015 18.4743 5.37056 20.9493 9.21918 22.0984L15.5739 10.1653C14.2313 9.3698 12.7993 8.92783 11.2777 8.92783Z" fill="black"/>
</g>
<mask id="mask6_20_827" style="mask-type:luminance" maskUnits="userSpaceOnUse" x="0" y="0" width="81" height="112">
<path d="M0 0H81V111.375H0V0Z" fill="white"/>
</mask>
<g mask="url(#mask6_20_827)">
<path fill-rule="evenodd" clip-rule="evenodd" d="M63.3678 8.92768C72.9446 2.29821 81.7159 17.325 70.528 21.1259L63.3678 8.92768Z" fill="#8DECB4"/>
</g>
<mask id="mask7_20_827" style="mask-type:luminance" maskUnits="userSpaceOnUse" x="0" y="0" width="81" height="112">
<path d="M0 0H81V111.375H0V0Z" fill="white"/>
</mask>
<g mask="url(#mask7_20_827)">
<path d="M70.4385 21.4796L63.0098 8.83942L63.2783 8.66263C64.9788 7.51353 66.6794 6.89478 68.3799 6.89478C72.4971 6.89478 75.4507 10.2537 76.0772 13.5242C76.3457 14.8501 76.6142 19.3582 70.707 21.3028L70.4385 21.4796ZM63.8153 9.1046L70.707 20.8608C74.1976 19.6233 75.9877 16.9716 75.4507 13.7894C74.9136 10.7841 72.139 7.69031 68.3799 7.69031C66.8584 7.60192 65.3368 8.04388 63.8153 9.1046Z" fill="black"/>
</g>
<mask id="mask8_20_827" style="mask-type:luminance" maskUnits="userSpaceOnUse" x="0" y="0" width="81" height="112">
<path d="M0 0H81V111.375H0V0Z" fill="white"/>
</mask>
<g mask="url(#mask8_20_827)">
<path fill-rule="evenodd" clip-rule="evenodd" d="M65.516 98.3811C67.9326 99.8838 72.4078 104.392 68.7381 106.602C65.2475 109.784 63.2785 103.066 60.1459 102.182C61.4884 100.414 63.189 98.7347 65.516 98.3811Z" fill="#8DECB4"/>
</g>
<mask id="mask9_20_827" style="mask-type:luminance" maskUnits="userSpaceOnUse" x="0" y="0" width="81" height="112">
<path d="M0 0H81V111.375H0V0Z" fill="white"/>
</mask>
<g mask="url(#mask9_20_827)">
<path d="M66.8586 107.751C65.4266 107.751 64.1735 106.337 63.0995 105.011C62.115 103.95 61.1304 102.801 60.0564 102.447L59.6089 102.359L59.8774 102.005C60.9514 100.503 62.7415 98.5582 65.4266 98.1162H65.5161L65.6056 98.2046C67.1271 99.1769 70.4387 101.917 70.3492 104.48C70.3492 105.453 69.8122 106.248 68.8277 106.867C68.2011 107.486 67.5746 107.751 66.8586 107.751ZM60.5934 102.005C61.6674 102.447 62.5625 103.597 63.4575 104.569C64.5315 105.895 65.6056 107.044 66.7691 107.044C67.3061 107.044 67.8431 106.779 68.3802 106.248H68.4697C69.2752 105.718 69.7227 105.099 69.7227 104.304C69.7227 102.271 67.1271 99.7073 65.3371 98.5582C63.726 99.0001 62.115 100.061 60.5934 102.005ZM68.7382 106.867C68.6487 106.867 68.5592 106.779 68.4697 106.69C68.2907 106.337 68.1117 105.895 68.0221 105.541C67.7536 104.834 67.4851 104.127 66.9481 103.597C66.8586 103.508 66.8586 103.331 66.9481 103.155C67.0376 103.066 67.2166 103.066 67.3956 103.155C68.0221 103.773 68.3802 104.569 68.6487 105.364L69.0962 106.425C69.1857 106.602 69.0962 106.779 69.0067 106.867H68.7382Z" fill="black"/>
</g>
<mask id="mask10_20_827" style="mask-type:luminance" maskUnits="userSpaceOnUse" x="0" y="0" width="81" height="112">
<path d="M0 0H81V111.375H0V0Z" fill="white"/>
</mask>
<g mask="url(#mask10_20_827)">
<path fill-rule="evenodd" clip-rule="evenodd" d="M21.8391 103.508C18.975 103.95 17.364 106.514 14.9474 107.839C12.7098 109.165 11.8148 107.397 11.6358 107.044C11.2778 106.867 11.2778 107.221 10.7408 106.69C8.68221 103.42 12.8888 101.033 15.1264 99.4421C18.259 98.735 20.2281 101.387 21.8391 103.508Z" fill="#8DECB4"/>
</g>
<mask id="mask11_20_827" style="mask-type:luminance" maskUnits="userSpaceOnUse" x="0" y="0" width="81" height="112">
<path d="M0 0H81V111.375H0V0Z" fill="white"/>
</mask>
<g mask="url(#mask11_20_827)">
<path d="M13.4258 108.546C12.2623 108.546 11.6358 107.574 11.4568 107.221H11.3673C11.0988 107.221 10.9197 107.132 10.5617 106.779V106.69C8.59268 103.596 11.9938 101.21 14.2313 99.6187L15.0369 99.0884H15.2159C15.5739 99 15.8424 99 16.2004 99C18.8855 99 20.586 101.298 22.0181 103.154L22.4656 103.773L21.9286 103.862C20.228 104.127 18.975 105.187 17.722 106.248C16.9164 106.955 16.1109 107.574 15.2159 108.104C14.4999 108.37 13.9628 108.546 13.4258 108.546ZM11.4568 106.69C11.5463 106.69 11.6358 106.69 11.8148 106.779H11.9043L11.9938 106.867C12.1728 107.132 12.6203 107.928 13.5153 107.928C13.9628 107.928 14.4104 107.751 14.8579 107.486C15.7529 107.044 16.5584 106.337 17.2744 105.718C18.438 104.746 19.691 103.685 21.3021 103.243C19.9595 101.475 18.3485 99.5304 16.1109 99.5304C15.8424 99.5304 15.5739 99.5304 15.3054 99.6187L14.5894 100.149C12.2623 101.74 9.3982 103.773 11.0988 106.425C11.1883 106.602 11.2778 106.69 11.4568 106.69ZM11.6358 107.309C11.4568 107.309 11.2778 107.132 11.3673 106.955C11.4568 106.071 11.9043 105.453 12.3518 104.746C12.6203 104.392 12.7993 104.038 12.9783 103.685C13.0678 103.508 13.2468 103.508 13.3363 103.508C13.5153 103.596 13.5153 103.773 13.5153 103.862C13.3363 104.304 13.0678 104.657 12.7993 105.011C12.3518 105.629 11.9938 106.16 11.9043 106.867C11.9043 107.221 11.8148 107.309 11.6358 107.309Z" fill="black"/>
</g>
<mask id="mask12_20_827" style="mask-type:luminance" maskUnits="userSpaceOnUse" x="0" y="0" width="81" height="112">
<path d="M0 0H81V111.375H0V0Z" fill="white"/>
</mask>
<g mask="url(#mask12_20_827)">
<path fill-rule="evenodd" clip-rule="evenodd" d="M9.93498 18.2971C8.32393 17.5015 7.16039 16.3524 8.14492 14.4962C9.03995 12.8167 10.7405 12.9935 12.3516 13.789L9.93498 18.2971ZM68.0223 16.706C69.6333 15.9105 70.7969 14.7613 69.8123 12.9051C68.9173 11.2256 67.2167 11.4024 65.6057 12.198L68.0223 16.706Z" fill="black"/>
</g>
<mask id="mask13_20_827" style="mask-type:luminance" maskUnits="userSpaceOnUse" x="0" y="0" width="81" height="112">
<path d="M0 0H81V111.375H0V0Z" fill="white"/>
</mask>
<g mask="url(#mask13_20_827)">
<path fill-rule="evenodd" clip-rule="evenodd" d="M79.0308 59.4C78.8518 62.4937 75.7192 61.0794 74.2872 60.1071C72.9447 59.1348 72.4971 59.9303 72.4076 58.0741C72.3181 56.8366 72.2286 55.6875 72.2286 54.45C74.2872 54.2732 76.5248 54.7152 78.2253 55.9527C79.1203 56.6598 80.7314 58.6044 79.0308 59.4Z" fill="#8DECB4"/>
</g>
<mask id="mask14_20_827" style="mask-type:luminance" maskUnits="userSpaceOnUse" x="0" y="0" width="81" height="112">
<path d="M0 0H81V111.375H0V0Z" fill="white"/>
</mask>
<g mask="url(#mask14_20_827)">
<path d="M77.4195 61.6101C76.0769 61.6101 74.5554 60.6377 74.1079 60.3726C73.6604 60.1074 73.3918 59.9306 73.1233 59.8422C72.4073 59.577 72.2283 59.4002 72.1388 58.0743C72.1388 57.8092 72.1388 57.544 72.0493 57.2788C71.9598 56.3949 71.8703 55.4226 71.9598 54.4502V54.1851H73.1233C75.0924 54.1851 76.972 54.7154 78.404 55.7761C79.0305 56.2181 80.1941 57.4556 80.1046 58.5163C80.1046 58.8699 79.9255 59.3118 79.3885 59.577C79.2095 61.3449 78.046 61.6101 77.4195 61.6101ZM72.4968 54.8038C72.4968 55.5993 72.4968 56.4833 72.5863 57.2788C72.5863 57.544 72.5863 57.8092 72.6758 58.0743C72.7653 59.1351 72.8548 59.1351 73.3023 59.3118C73.5709 59.4002 73.9289 59.577 74.4659 59.8422C75.2714 60.3726 76.5244 60.9913 77.4195 60.9913C77.9565 60.9913 78.6725 60.8145 78.762 59.4002V59.2235L78.941 59.1351C79.299 58.9583 79.478 58.7815 79.478 58.4279C79.5675 57.7208 78.6725 56.6601 78.046 56.2181C76.7035 55.2458 74.9134 54.7154 73.1233 54.7154C72.9443 54.8038 72.7653 54.8038 72.4968 54.8038Z" fill="black"/>
</g>
<mask id="mask15_20_827" style="mask-type:luminance" maskUnits="userSpaceOnUse" x="0" y="0" width="81" height="112">
<path d="M0 0H81V111.375H0V0Z" fill="white"/>
</mask>
<g mask="url(#mask15_20_827)">
<path fill-rule="evenodd" clip-rule="evenodd" d="M79.0311 59.4C78.5836 59.2232 78.0466 59.1348 77.7781 58.6929L79.0311 59.4Z" fill="#C6B198"/>
</g>
<mask id="mask16_20_827" style="mask-type:luminance" maskUnits="userSpaceOnUse" x="0" y="0" width="81" height="112">
<path d="M0 0H81V111.375H0V0Z" fill="white"/>
</mask>
<g mask="url(#mask16_20_827)">
<path d="M79.0311 59.7538H78.9416L78.7626 59.6654C78.3151 59.4886 77.8676 59.4002 77.5991 58.9583C77.5096 58.8699 77.5096 58.6047 77.6886 58.5163C77.7781 58.4279 78.0466 58.4279 78.1361 58.6047C78.3151 58.8699 78.6731 58.9583 79.0311 59.1351C79.1206 59.1351 79.2101 59.2235 79.2101 59.2235C79.3891 59.3118 79.4786 59.4886 79.3891 59.577C79.2996 59.6654 79.1206 59.7538 79.0311 59.7538Z" fill="black"/>
</g>
<mask id="mask17_20_827" style="mask-type:luminance" maskUnits="userSpaceOnUse" x="0" y="0" width="81" height="112">
<path d="M0 0H81V111.375H0V0Z" fill="white"/>
</mask>
<g mask="url(#mask17_20_827)">
<path fill-rule="evenodd" clip-rule="evenodd" d="M39.3814 2.6521C51.5538 2.6521 62.9206 4.33156 68.9173 15.911C74.2875 28.8164 72.3184 42.7825 73.2134 56.4833C73.9295 68.2396 75.451 81.7637 69.9913 92.636C64.1737 104.039 49.6742 106.956 37.7703 106.514C28.3726 106.16 17.0952 103.155 11.725 94.6691C5.54935 84.7691 8.41344 70.0075 8.86096 58.9583C9.39797 45.8762 5.28084 32.7057 9.66648 19.9771C14.0521 6.62978 26.2245 3.62442 39.3814 2.6521Z" fill="url(#paint0_linear_20_827)"/>
</g>
<mask id="mask18_20_827" style="mask-type:luminance" maskUnits="userSpaceOnUse" x="0" y="0" width="81" height="112">
<path d="M0 0H81V111.375H0V0Z" fill="white"/>
</mask>
<g mask="url(#mask18_20_827)">
<path d="M39.8284 106.867H37.5908C33.9212 106.779 28.372 106.16 22.9124 103.95C17.6317 101.829 13.7831 98.8234 11.277 94.8457C6.26486 86.8019 7.15989 75.7528 7.96541 65.9412C8.14442 63.4662 8.32342 61.168 8.41293 58.9582C8.59193 54.3617 8.23392 49.5885 7.78641 45.0805C7.07038 36.7716 6.35436 28.1975 9.12895 19.8885C11.277 13.701 15.1256 9.28138 20.9433 6.45281C25.508 4.24299 31.1466 3.00549 39.2019 2.38674C51.1952 2.29835 63.0991 3.97781 69.0958 15.7341C73.0339 25.1921 73.0339 35.3573 73.1234 45.1689C73.1234 48.8814 73.1234 52.6823 73.3919 56.3948C73.4814 57.5439 73.5709 58.693 73.5709 59.8421C74.2869 70.626 75.0925 82.8242 70.0803 92.7243C67.5742 97.7626 63.1886 101.475 57.1919 103.862C52.3588 105.806 46.2726 106.867 39.8284 106.867ZM39.3809 2.9171C26.761 3.88942 14.4096 6.6296 9.84497 20.0653C7.07038 28.2859 7.7864 36.7716 8.50243 44.9921C8.86044 49.5885 9.30795 54.2733 9.12895 58.9582C9.03944 61.168 8.86044 63.4662 8.68143 65.9412C7.87591 75.6644 6.98088 86.6251 11.9035 94.4921C13.9621 97.7626 20.5853 105.541 37.6803 106.16H39.9179C59.698 106.16 67.0372 97.4975 69.7223 92.3707C74.645 82.6475 73.8394 70.4492 73.2129 59.7537C73.1234 58.6046 73.0339 57.4555 73.0339 56.3064C72.8549 52.5939 72.7654 48.793 72.7654 45.0805C72.6759 35.3573 72.6759 25.1921 68.8273 15.8225C66.1422 10.6073 62.1146 7.07156 56.5654 5.03853C50.8372 3.18228 44.393 2.9171 39.3809 2.9171Z" fill="black"/>
</g>
<mask id="mask19_20_827" style="mask-type:luminance" maskUnits="userSpaceOnUse" x="0" y="0" width="81" height="112">
<path d="M0 0H81V111.375H0V0Z" fill="white"/>
</mask>
<g mask="url(#mask19_20_827)">
<path fill-rule="evenodd" clip-rule="evenodd" d="M41.5293 18.7392C43.6774 31.291 64.4421 27.9321 61.4885 15.2919C58.8034 3.97762 40.8133 7.15976 41.5293 18.7392Z" fill="#8DECB4"/>
</g>
<mask id="mask20_20_827" style="mask-type:luminance" maskUnits="userSpaceOnUse" x="0" y="0" width="81" height="112">
<path d="M0 0H81V111.375H0V0Z" fill="white"/>
</mask>
<g mask="url(#mask20_20_827)">
<path d="M51.3748 26.9598C47.3472 26.9598 42.2455 24.8383 41.1715 18.8276C40.9925 15.9991 41.8875 13.4357 43.7671 11.491C45.8256 9.2812 48.9582 8.0437 52.1803 8.0437C55.9394 8.0437 60.4146 9.98834 61.6676 15.3803C62.3836 18.3857 61.8466 21.0375 60.1461 23.1589C58.2665 25.4571 54.9549 26.9598 51.3748 26.9598ZM41.798 18.7392C42.2455 21.2142 43.409 23.1589 45.2886 24.5732C46.8997 25.8107 49.1372 26.4294 51.3748 26.4294C54.6864 26.4294 57.9085 25.0151 59.6985 22.8053C61.3096 20.8607 61.7571 18.2973 61.1306 15.4687C59.9671 10.4303 55.7604 8.66245 52.1803 8.66245C49.1372 8.66245 46.1836 9.89995 44.2146 11.933C42.514 13.7008 41.619 16.0875 41.798 18.7392Z" fill="black"/>
</g>
<mask id="mask21_20_827" style="mask-type:luminance" maskUnits="userSpaceOnUse" x="0" y="0" width="81" height="112">
<path d="M0 0H81V111.375H0V0Z" fill="white"/>
</mask>
<g mask="url(#mask21_20_827)">
<path fill-rule="evenodd" clip-rule="evenodd" d="M16.7372 20.7721C19.6013 31.6444 37.2334 28.9042 36.6069 17.9435C35.8013 4.86134 13.9627 7.33634 16.7372 20.7721Z" fill="#8DECB4"/>
</g>
<mask id="mask22_20_827" style="mask-type:luminance" maskUnits="userSpaceOnUse" x="0" y="0" width="81" height="112">
<path d="M0 0H81V111.375H0V0Z" fill="white"/>
</mask>
<g mask="url(#mask22_20_827)">
<path d="M26.1347 28.0206C22.2861 28.0206 17.811 26.1643 16.3789 20.8608C15.7524 17.767 16.3789 14.9384 18.169 12.817C20.1381 10.4304 23.3602 9.01611 26.8508 9.01611C31.5049 9.01611 36.4276 11.7563 36.7856 17.9438C36.9646 20.5072 36.1591 22.8054 34.369 24.6616C32.4894 26.6947 29.3568 28.0206 26.1347 28.0206ZM26.8508 9.63486C23.5392 9.63486 20.4961 10.9608 18.6165 13.1706C16.916 15.2036 16.3789 17.767 17.0055 20.684C18.2585 25.634 22.5546 27.4018 26.1347 27.4018C29.1778 27.4018 32.1314 26.2527 34.011 24.2197C35.622 22.5402 36.4276 20.3304 36.2486 17.9438C36.0695 14.1429 33.474 9.63486 26.8508 9.63486Z" fill="black"/>
</g>
<mask id="mask23_20_827" style="mask-type:luminance" maskUnits="userSpaceOnUse" x="0" y="0" width="81" height="112">
<path d="M0 0H81V111.375H0V0Z" fill="white"/>
</mask>
<g mask="url(#mask23_20_827)">
<path fill-rule="evenodd" clip-rule="evenodd" d="M44.0354 33.7663C44.0354 35.3574 44.3935 37.2136 44.1249 38.9815C43.6774 39.777 42.8719 39.8654 42.1559 40.1306C41.1714 39.9538 40.3658 39.335 39.9183 38.4511C39.6498 36.5065 40.0078 34.5618 40.0973 32.6172L44.0354 33.7663Z" fill="white"/>
</g>
<mask id="mask24_20_827" style="mask-type:luminance" maskUnits="userSpaceOnUse" x="0" y="0" width="81" height="112">
<path d="M0 0H81V111.375H0V0Z" fill="white"/>
</mask>
<g mask="url(#mask24_20_827)">
<path d="M42.1558 40.4837C40.9923 40.3069 40.0972 39.5998 39.6497 38.6275C39.4707 37.2132 39.5602 35.8873 39.6497 34.5614C39.7392 33.9426 39.7392 33.3239 39.7392 32.7051V32.3516L44.3039 33.7659V33.9426C44.3039 34.473 44.3934 35.0033 44.3934 35.6221C44.4829 36.7712 44.5724 38.0087 44.3934 39.1578V39.2462C44.0354 39.9534 43.4089 40.1301 42.7823 40.3953C42.6033 40.3069 42.4243 40.3953 42.1558 40.4837ZM40.1868 38.3623C40.5448 39.1578 41.2608 39.6882 42.0663 39.865C42.2453 39.7766 42.4243 39.7766 42.5138 39.6882C43.0508 39.5114 43.4984 39.3346 43.7669 38.8926C43.9459 37.8319 43.8564 36.6828 43.7669 35.5337C43.7669 35.0034 43.6774 34.473 43.6774 34.031L40.2763 32.9703C40.2763 33.5007 40.1868 34.031 40.1868 34.473C40.0973 35.8873 40.0077 37.1248 40.1868 38.3623Z" fill="black"/>
</g>
<mask id="mask25_20_827" style="mask-type:luminance" maskUnits="userSpaceOnUse" x="0" y="0" width="81" height="112">
<path d="M0 0H81V111.375H0V0Z" fill="white"/>
</mask>
<g mask="url(#mask25_20_827)">
<path fill-rule="evenodd" clip-rule="evenodd" d="M24.6132 19.0047C24.6132 20.7725 23.2707 22.1868 21.6596 22.1868C20.0486 22.1868 18.7061 20.7725 18.7061 19.0047C18.7061 17.2368 20.0486 15.8225 21.6596 15.8225C23.2707 15.8225 24.6132 17.2368 24.6132 19.0047Z" fill="black"/>
</g>
<mask id="mask26_20_827" style="mask-type:luminance" maskUnits="userSpaceOnUse" x="0" y="0" width="81" height="112">
<path d="M0 0H81V111.375H0V0Z" fill="white"/>
</mask>
<g mask="url(#mask26_20_827)">
<path fill-rule="evenodd" clip-rule="evenodd" d="M23.6289 19.7116C23.6289 20.1535 23.2709 20.5071 22.9129 20.5071C22.5549 20.5071 22.1969 20.1535 22.1969 19.7116C22.1969 19.2696 22.5549 18.916 22.9129 18.916C23.3604 18.916 23.6289 19.2696 23.6289 19.7116Z" fill="white"/>
</g>
<mask id="mask27_20_827" style="mask-type:luminance" maskUnits="userSpaceOnUse" x="0" y="0" width="81" height="112">
<path d="M0 0H81V111.375H0V0Z" fill="white"/>
</mask>
<g mask="url(#mask27_20_827)">
<path fill-rule="evenodd" clip-rule="evenodd" d="M49.5845 18.209C49.5845 19.9769 48.242 21.3911 46.631 21.3911C45.0199 21.3911 43.6774 19.9769 43.6774 18.209C43.6774 16.4411 45.0199 15.0269 46.631 15.0269C48.242 15.0269 49.5845 16.4411 49.5845 18.209Z" fill="black"/>
</g>
<mask id="mask28_20_827" style="mask-type:luminance" maskUnits="userSpaceOnUse" x="0" y="0" width="81" height="112">
<path d="M0 0H81V111.375H0V0Z" fill="white"/>
</mask>
<g mask="url(#mask28_20_827)">
<path fill-rule="evenodd" clip-rule="evenodd" d="M48.6902 18.9161C48.6902 19.3581 48.4217 19.7117 47.9741 19.7117C47.6161 19.7117 47.2581 19.3581 47.2581 18.9161C47.2581 18.4742 47.5266 18.1206 47.9741 18.1206C48.3322 18.1206 48.6902 18.4742 48.6902 18.9161ZM35.4438 33.5894C34.1012 36.6831 36.1598 42.959 39.7399 38.3626C39.4714 36.4179 39.8294 34.4733 39.9189 32.5286L35.4438 33.5894Z" fill="white"/>
</g>
<mask id="mask29_20_827" style="mask-type:luminance" maskUnits="userSpaceOnUse" x="0" y="0" width="81" height="112">
<path d="M0 0H81V111.375H0V0Z" fill="white"/>
</mask>
<g mask="url(#mask29_20_827)">
<path d="M37.323 40.307C36.6964 40.307 36.0699 39.9534 35.6224 39.2462C34.6379 37.832 34.4589 35.1802 35.1749 33.5007L35.2644 33.3239L40.1871 32.0864V32.44L40.0976 34.3846C40.008 35.7105 39.9185 36.948 40.0976 38.2739V38.3623L40.0081 38.4507C39.113 39.6882 38.218 40.307 37.323 40.307ZM35.7119 33.8543C35.1749 35.357 35.3539 37.7436 36.1594 38.8927C36.5174 39.423 36.8755 39.6882 37.323 39.6882C37.9495 39.6882 38.6655 39.1579 39.3815 38.2739C39.2025 36.948 39.292 35.6221 39.471 34.3846L39.5605 32.882L35.7119 33.8543Z" fill="black"/>
</g>
<mask id="mask30_20_827" style="mask-type:luminance" maskUnits="userSpaceOnUse" x="0" y="0" width="81" height="112">
<path d="M0 0H81V111.375H0V0Z" fill="white"/>
</mask>
<g mask="url(#mask30_20_827)">
<path fill-rule="evenodd" clip-rule="evenodd" d="M35.8909 27.5782C33.4744 27.755 31.5053 30.6719 32.7583 32.8818C34.4589 35.8871 38.1285 32.6166 40.4556 32.8818C43.1407 32.9701 45.2887 35.7103 47.4368 33.4121C49.8534 30.8487 46.3628 28.3737 43.7672 27.2246L35.8909 27.5782Z" fill="#21C49D"/>
</g>
<mask id="mask31_20_827" style="mask-type:luminance" maskUnits="userSpaceOnUse" x="0" y="0" width="81" height="112">
<path d="M0 0H81V111.375H0V0Z" fill="white"/>
</mask>
<g mask="url(#mask31_20_827)">
<path d="M45.5562 34.6501C44.7507 34.6501 43.9452 34.2966 43.1396 33.943C42.3341 33.5894 41.4391 33.2359 40.4546 33.2359H40.186C39.47 33.2359 38.6645 33.501 37.7695 33.8546C36.7849 34.2082 35.8004 34.4734 34.9054 34.4734C33.8313 34.4734 33.0258 34.0314 32.4888 33.0591C31.8623 31.9984 31.9518 30.7609 32.5783 29.6117C33.2943 28.2859 34.5474 27.4903 35.8899 27.3135L43.8557 26.96H43.9452C45.9142 27.7555 48.1518 29.2582 48.5993 31.026C48.7783 31.91 48.5098 32.7939 47.7938 33.5894C47.0778 34.385 46.3617 34.6501 45.5562 34.6501ZM40.5441 32.7055C41.5286 32.7055 42.5131 33.1475 43.4081 33.501C44.2137 33.8546 44.9297 34.1198 45.6457 34.1198C46.2722 34.1198 46.8092 33.8546 47.3463 33.3242C47.9728 32.7055 48.1518 31.9984 48.0623 31.2912C47.7043 29.7885 45.5562 28.3742 43.8557 27.6671L36.0689 28.0207C34.9054 28.1091 33.8313 28.9046 33.2048 29.9653C32.6678 30.9376 32.6678 31.9984 33.1153 32.8823C33.5628 33.6778 34.0999 34.0314 34.9949 34.0314C35.8004 34.0314 36.6954 33.6778 37.5905 33.4126C38.575 33.0591 39.3805 32.7939 40.2755 32.7939C40.2755 32.6171 40.365 32.6171 40.5441 32.7055Z" fill="#231F20"/>
</g>
<mask id="mask32_20_827" style="mask-type:luminance" maskUnits="userSpaceOnUse" x="0" y="0" width="81" height="112">
<path d="M0 0H81V111.375H0V0Z" fill="white"/>
</mask>
<g mask="url(#mask32_20_827)">
<path fill-rule="evenodd" clip-rule="evenodd" d="M35.6223 27.4901C35.4433 23.3356 43.4986 22.8053 44.3936 26.2526C45.3781 29.7883 35.9803 30.5838 35.6223 27.4901Z" fill="black"/>
</g>
<defs>
<linearGradient id="paint0_linear_20_827" x1="22.5" y1="8" x2="62" y2="109" gradientUnits="userSpaceOnUse">
<stop stop-color="#FF2079"/>
<stop offset="1" stop-color="#21C49D"/>
</linearGradient>
</defs>
</svg>
