<svg width="80" height="91" viewBox="0 0 80 91" fill="none" xmlns="http://www.w3.org/2000/svg">
<path d="M7.28098 81.6596L0 0H80L72.7115 81.6482L39.9509 90.7287L7.28098 81.6596Z" fill="#FF0066"/>
<path d="M39.9996 83.7881L66.4697 76.4466L72.6997 6.67627H39.9996V83.7881Z" fill="#FF0066"/>
<path d="M39.9992 36.9645H26.749L25.8304 26.7084H39.9992V16.6904H14.8862L15.1244 19.3783L17.5854 46.9749H39.9992V36.9645ZM39.9992 62.9734L39.9538 62.9847L28.8017 59.9718L28.0873 51.9839H18.0353L19.4378 67.7102L39.9538 73.4072L39.9992 73.3921V62.9734Z" fill="#EBEBEB"/>
<path d="M39.965 36.9645V46.9787H52.3003L51.136 59.968L39.965 62.981V73.3996L60.4962 67.7102L60.6474 66.0166L63.0025 39.6523L63.2445 36.9607H60.5453L39.965 36.9645ZM39.965 16.6904V26.7084H64.1556L64.3559 24.4553L64.8133 19.3783L65.0515 16.6904H39.965Z" fill="#21C49D"/>
<path d="M39.9999 90.7139L39.9507 90.729H39.9999V90.7139Z" fill="#DEDEDE"/>
<path d="M40 26.7083H25.8312L26.7461 36.9644H39.9622H40V26.7083ZM40 0H0L7.28098 81.6596L39.9509 90.7287L40 90.7136V73.3919L39.9546 73.4071L19.4386 67.7101L18.0361 51.9838H28.0881L28.8026 59.9717L39.9546 62.9846L39.966 62.9808L40 62.9733V46.9786H17.5862L15.1252 19.3819L14.8871 16.6903H39.966H40V0Z" fill="#FF0066"/>
<path d="M28.0873 51.9839H18.0353L19.4378 67.7102L39.9538 73.4072L39.9992 73.3921L39.9651 73.3996V62.981L39.9538 62.9847L28.8017 59.9718L28.0873 51.9839ZM39.9651 16.6904H14.8862L15.1244 19.3783L17.5854 46.9749H39.9992H39.9651V36.9645H26.749L25.8304 26.7084H39.9992H39.9651V16.6904Z" fill="#08B78C"/>
<path d="M39.999 62.9734L39.965 62.981V73.3996L39.999 73.3921V62.9734ZM39.999 36.9645H39.965V46.9787H39.999V36.9645ZM39.999 16.6904H39.965V26.7084H39.999V16.6904Z" fill="#DEDEDE"/>
</svg>
