<svg width="81" height="110" viewBox="0 0 81 110" fill="none" xmlns="http://www.w3.org/2000/svg">
<path d="M25.9731 84.5657C25.9731 84.5657 21.7971 86.9958 28.949 87.8157C37.6146 88.8056 42.043 88.6637 51.5899 86.8591C51.5899 86.8591 54.105 88.4316 57.6109 89.7947C36.2016 98.9667 9.15947 89.2629 25.9731 84.5657ZM23.3555 72.5947C23.3555 72.5947 18.6705 76.0629 25.8285 76.804C35.0855 77.7598 42.3943 77.8378 55.0476 75.4024C55.0476 75.4024 56.7935 77.1764 59.5434 78.1452C33.6638 85.7141 4.8389 78.7409 23.3555 72.5947Z" fill="#21C59D"/>
<path d="M45.408 52.285C50.686 58.3602 44.0238 63.8223 44.0238 63.8223C44.0238 63.8223 57.4174 56.9095 51.2677 48.2491C45.5218 40.1765 41.1172 36.1669 64.9644 22.3362C64.9644 22.3371 27.5308 31.6834 45.408 52.285Z" fill="#FF2079"/>
<path d="M73.7211 93.4213C73.7211 93.4213 76.8126 95.9705 70.3151 97.9407C57.9613 101.683 18.8869 102.811 8.03466 98.0905C4.13545 96.3928 11.4503 94.0389 13.7516 93.5422C16.1511 93.0227 17.5212 93.1173 17.5212 93.1173C13.1822 90.0626 -10.5231 99.1181 5.48191 101.716C49.1265 108.79 85.0402 98.5294 73.7211 93.4213ZM27.9827 60.1891C27.9827 60.1891 8.10912 64.9101 20.9456 66.6262C26.3664 67.3515 37.1679 67.1851 47.2361 66.3406C55.462 65.6494 63.7168 64.1733 63.7168 64.1733C63.7168 64.1733 60.8189 65.4164 58.7199 66.8478C38.5345 72.1574 -0.450558 69.6844 10.774 64.2565C20.2631 59.667 27.9827 60.1891 27.9827 60.1891ZM63.6345 80.1162C84.1519 69.4575 74.6645 59.2141 68.0426 60.5939C66.4237 60.9311 65.6975 61.2246 65.6975 61.2246C65.6975 61.2246 66.3002 60.2794 67.4496 59.8729C80.5488 55.2694 90.6214 73.454 63.2245 80.6567C63.2245 80.6549 63.539 80.3702 63.6345 80.1162Z" fill="#21C59D"/>
<path d="M51.2679 0C51.2679 0 62.6283 11.3673 40.4902 28.8415C22.7365 42.8632 36.442 50.8561 40.484 59.9922C30.1197 50.6424 22.5175 42.4103 27.6169 34.7494C35.1052 23.5065 55.8504 18.0532 51.2679 0Z" fill="#FF2079"/>
<path d="M29.9997 109.008C49.6893 110.267 79.9333 108.307 80.649 98.9897C80.649 98.9897 79.2728 102.522 64.3751 105.324C47.5676 108.489 26.8337 108.12 14.5404 106.09C14.5404 106.091 17.059 108.176 29.9997 109.008Z" fill="#21C59D"/>
</svg>
