<svg width="80" height="80" viewBox="0 0 80 80" fill="none" xmlns="http://www.w3.org/2000/svg">
<path d="M0 0H80V80.0006H0V0Z" fill="url(#paint0_linear_20_976)"/>
<path d="M73.4525 60.9203C72.8665 57.2706 70.4866 54.2051 63.4371 51.3466C60.9883 50.2212 58.2582 49.4153 57.4447 47.5595C57.1558 46.4795 57.1175 45.8711 57.3003 45.2173C57.8249 43.0957 60.3575 42.4342 62.3648 43.0426C63.6576 43.4759 64.8814 44.4722 65.6195 46.0615C69.0717 43.8261 69.0647 43.8408 71.4752 42.3045C70.5927 40.9363 70.1217 40.3049 69.544 39.7195C67.4677 37.4004 64.6386 36.206 60.114 36.2974L57.7572 36.6022C55.4987 37.1729 53.3464 38.3583 52.0843 39.9477C48.2972 44.2447 49.3772 51.7651 53.9855 54.8601C58.5253 58.2676 65.1946 59.0428 66.0464 62.2291C66.8753 66.1299 63.1796 67.3927 59.5063 66.9441C56.7992 66.3811 55.2936 65.0052 53.6659 62.5033C50.67 64.237 50.67 64.237 47.5897 66.0085C48.3202 67.6055 49.0877 68.3283 50.3121 69.7118C56.1071 75.5899 70.6087 75.3011 73.2096 66.4041C73.3151 66.0986 74.0155 64.0613 73.4525 60.9203ZM43.4902 36.7683H36.0074L35.9768 56.1139C35.9768 60.2282 36.1896 63.9999 35.5205 65.156C34.4258 67.4298 31.589 67.1479 30.2962 66.707C28.9803 66.0603 28.3112 65.1407 27.5361 63.8408C27.3233 63.4676 27.1635 63.1787 27.1098 63.1564L21.026 66.8821C22.0376 68.9584 23.5279 70.7605 25.4368 71.9313C28.2882 73.6427 32.1207 74.1674 36.1289 73.2471C38.7375 72.4873 40.9883 70.9133 42.1667 68.5174C43.8704 65.3765 43.5049 61.5747 43.4895 57.3697C43.5279 50.5094 43.4902 43.6504 43.4902 36.7683Z" fill="#21C29B"/>
<defs>
<linearGradient id="paint0_linear_20_976" x1="17.5" y1="15.5" x2="101" y2="98" gradientUnits="userSpaceOnUse">
<stop stop-color="#FF2079"/>
<stop offset="1"/>
</linearGradient>
</defs>
</svg>
