<svg width="49" height="110" viewBox="0 0 49 110" fill="none" xmlns="http://www.w3.org/2000/svg">
<path fill-rule="evenodd" clip-rule="evenodd" d="M45.9873 35.5769C47.422 39.7272 48.4554 43.9643 48.795 48.356C49.217 53.8042 49.0239 59.2141 47.8752 64.5729C47.8439 64.7204 47.7778 64.859 47.7286 65.002C47.3684 65.0029 47.001 64.9582 46.6488 65.0127C43.673 65.4802 40.7 65.9647 37.7269 66.4465C34.6537 66.9444 31.576 67.4227 28.5082 67.9545C27.4212 68.1423 26.0759 67.9179 25.637 69.4214C25.6245 69.4625 25.4993 69.4697 25.4269 69.4929L25.5753 60.5084C25.5244 53.2822 25.4743 46.056 25.4243 38.8298L26.8563 38.584C29.1983 38.2005 31.5403 37.8116 33.884 37.4389C36.681 36.9946 39.4807 36.5629 42.2795 36.1293C43.5139 35.9371 44.7502 35.761 45.9873 35.5769Z" fill="#D10D5B"/>
<path fill-rule="evenodd" clip-rule="evenodd" d="M22.4697 95.6839C20.959 94.385 19.3956 93.1434 17.9475 91.7776C10.1555 84.428 4.45602 75.7778 1.64921 65.3488C0.87599 62.4785 0.360216 59.5617 0.194846 56.5958C0.0786405 54.5202 -0.0894138 52.4258 0.0571843 50.3609C0.447815 44.8688 1.24159 39.4295 2.85238 34.1395L2.94088 34.0161C3.09731 34.2244 3.32257 34.4085 3.40213 34.6436C4.97448 39.274 6.53521 43.9079 8.0879 48.5445C12.9668 63.1149 17.8394 77.689 22.7263 92.2558C22.8219 92.5401 23.0695 92.7734 23.2474 93.0299L22.4697 95.6839Z" fill="#C70754"/>
<path fill-rule="evenodd" clip-rule="evenodd" d="M45.9872 35.577C44.75 35.7611 43.5129 35.9372 42.2784 36.1276C39.4796 36.5612 36.68 36.9929 33.883 37.4372C31.5392 37.8099 29.1972 38.1988 26.8552 38.5823L25.4232 38.8281L25.4125 37.894C25.3651 37.1261 25.2837 36.3592 25.2748 35.5913C25.2131 30.6946 25.1747 25.7978 25.1139 20.9011C25.0764 17.8359 25.0201 14.7717 24.9575 11.7074C24.919 9.80344 24.8779 7.89856 24.7921 5.99726C24.7456 4.97554 24.5811 3.95919 24.5141 2.93747C24.4766 2.35018 24.5284 1.75843 24.54 1.16846C25.2703 2.58349 25.9846 4.00924 26.7354 5.41355C27.9216 7.63397 29.8113 9.26979 31.5124 11.0549C38.2371 18.1095 43.0114 26.3118 45.9872 35.577Z" fill="#C90A56"/>
<path fill-rule="evenodd" clip-rule="evenodd" d="M25.4259 69.4923C25.4983 69.4691 25.6244 69.4619 25.636 69.4208C26.0749 67.9173 27.4202 68.1416 28.5072 67.9539C31.575 67.423 34.6527 66.9438 37.7259 66.4459C40.6989 65.9641 43.672 65.4796 46.6478 65.0121C47 64.9567 47.3674 65.0023 47.7276 65.0014C47.1716 66.9858 46.7336 69.0132 46.0283 70.9431C45.2274 73.1322 44.2584 75.2686 43.2296 77.363C41.6921 80.4943 39.7765 83.4147 37.5507 86.0901C35.8353 88.1532 33.9233 90.0599 32.0068 91.9433C30.9475 92.9847 29.6987 93.833 28.5367 94.7689L28.2354 94.5633L27.1502 93.6354L26.0275 91.1745C25.2543 88.2935 24.8485 85.3607 24.7814 82.3804L24.802 81.879L24.9548 79.7104C25.0058 78.9702 25.0737 78.231 25.105 77.4891C25.2203 74.8235 25.3205 72.1579 25.4259 69.4923Z" fill="#CB0B58"/>
<path fill-rule="evenodd" clip-rule="evenodd" d="M25.4265 69.4925C25.321 72.1581 25.2209 74.8237 25.1073 77.4902C25.0761 78.2321 25.0081 78.9714 24.9572 79.7115L24.2733 79.9698C22.7546 75.4986 21.235 71.0747 19.7485 66.6392C17.2903 59.3013 14.8616 51.9517 12.4069 44.612C10.4252 38.6873 8.42733 32.7688 6.41786 26.853C6.32401 26.5759 6.05405 26.3596 5.86633 26.1147L10.2428 18.0679C10.393 18.3289 10.5914 18.5729 10.6862 18.8536C12.7109 24.8454 14.7319 30.838 16.736 36.8369C19.3426 44.6406 21.9331 52.4505 24.5379 60.2551C24.6416 60.567 24.8132 60.8549 24.9768 61.2044L25.5757 60.5071C25.5257 63.5026 25.4756 66.4971 25.4265 69.4925Z" fill="#C70754"/>
<path fill-rule="evenodd" clip-rule="evenodd" d="M5.86634 26.115C6.05406 26.3599 6.32312 26.5762 6.41787 26.8533C8.42734 32.7691 10.4252 38.6876 12.4069 44.6123C14.8616 51.952 17.2903 59.3016 19.7485 66.6395C21.2341 71.0741 22.7537 75.4989 24.2733 79.9701L24.9572 79.7118L24.8043 81.8804L24.6658 82.3801C24.428 84.7542 24.2278 87.1338 23.9381 89.5026C23.7924 90.6897 23.4831 91.8553 23.2481 93.0308C23.0711 92.7742 22.8226 92.5409 22.7269 92.2567C17.84 77.6889 12.9674 63.1158 8.08855 48.5454C6.53586 43.9088 4.97513 39.2749 3.40278 34.6445C3.32322 34.4094 3.09885 34.2253 2.94153 34.017C3.91587 31.3827 4.8911 28.7484 5.86634 26.115Z" fill="#C70754"/>
<path fill-rule="evenodd" clip-rule="evenodd" d="M25.5737 60.5078L24.9748 61.2051C24.8112 60.8556 24.6396 60.5668 24.5359 60.2558C21.932 52.4512 19.3406 44.6413 16.734 36.8376C14.7299 30.8387 12.7088 24.8461 10.6842 18.8543C10.5903 18.5736 10.3919 18.3287 10.2408 18.0686L15.6533 10.9487C15.824 11.1767 16.0672 11.3796 16.1557 11.6361C17.6583 16.035 19.1475 20.4392 20.6278 24.8461C22.0106 28.9615 23.3729 33.0833 24.7719 37.1934C24.8657 37.4687 25.192 37.6636 25.4101 37.896L25.4208 38.8301C25.4727 46.0545 25.5236 53.2816 25.5737 60.5078Z" fill="#C8195F"/>
<path fill-rule="evenodd" clip-rule="evenodd" d="M25.4124 37.8938C25.1943 37.6614 24.868 37.4666 24.7742 37.1912C23.3752 33.0811 22.0129 28.9594 20.6301 24.8439C19.1498 20.437 17.6606 16.0337 16.1579 11.634C16.0695 11.3774 15.8263 11.1745 15.6556 10.9466C17.4157 9.22317 19.1212 7.43807 20.9519 5.7942C22.5797 4.33358 23.8883 2.76749 23.9482 0.45946C23.9509 0.363814 24.0009 0.268167 24.0778 0L24.5417 1.16742C24.5301 1.75828 24.4774 2.34915 24.5158 2.93643C24.5829 3.95815 24.7473 4.9745 24.7938 5.99622C24.8796 7.89753 24.9208 9.80241 24.9592 11.7064C25.0209 14.7707 25.0772 17.8349 25.1156 20.9001C25.1755 25.7968 25.2149 30.6935 25.2765 35.5903C25.2837 36.3599 25.3641 37.126 25.4124 37.8938Z" fill="#D10D5B"/>
<path fill-rule="evenodd" clip-rule="evenodd" d="M23.2466 93.0303C23.4817 91.8548 23.791 90.6883 23.9367 89.5021C24.2272 87.1341 24.4266 84.7537 24.6643 82.3795L24.7233 82.3706L24.7823 82.3804C24.8494 85.3607 25.2552 88.2935 26.0284 91.1745C25.8711 91.3819 25.6485 91.567 25.5654 91.8012C24.9155 93.6336 24.3032 95.4804 23.6498 97.3129C23.5604 97.5632 23.3119 97.758 23.1367 97.9779L22.4689 95.6842L23.2466 93.0303Z" fill="#44A890"/>
<path fill-rule="evenodd" clip-rule="evenodd" d="M23.1382 97.9789C23.3134 97.759 23.5628 97.5642 23.6513 97.3139C24.3047 95.4814 24.9179 93.6355 25.5669 91.8022C25.65 91.568 25.8717 91.3829 26.0299 91.1755L27.1518 93.6373C26.9301 93.952 26.6244 94.2353 26.501 94.5857L24.3521 100.896C24.2636 101.149 23.9615 101.327 23.7594 101.541L23.1382 97.9789Z" fill="#51B29B"/>
<path fill-rule="evenodd" clip-rule="evenodd" d="M23.7578 101.54C23.9607 101.328 24.262 101.148 24.3505 100.895L26.4994 94.5849C26.6218 94.2354 26.9284 93.9511 27.1501 93.6365L28.2362 94.5634C27.7115 95.0819 27.4201 95.6808 27.5953 96.4379L27.2654 97.5178C27.1153 97.7028 26.898 97.8637 26.8239 98.0755C26.0739 100.224 25.3579 102.383 24.6025 104.531C24.5069 104.804 24.2414 105.017 24.0537 105.257C23.9563 104.017 23.857 102.78 23.7578 101.54Z" fill="#28B996"/>
<path fill-rule="evenodd" clip-rule="evenodd" d="M24.0559 105.256C24.2427 105.016 24.5082 104.802 24.6048 104.531C25.3601 102.383 26.0761 100.224 26.8261 98.0749C26.9003 97.8639 27.1166 97.7021 27.2677 97.5171L26.8127 102.474C26.6911 102.614 26.515 102.737 26.4569 102.9C25.9429 104.343 25.4584 105.796 24.9427 107.239C24.8363 107.537 24.6325 107.8 24.4734 108.078C24.3321 107.892 24.0792 107.714 24.0675 107.521C24.022 106.769 24.0532 106.012 24.0559 105.256Z" fill="#22BE99"/>
<path fill-rule="evenodd" clip-rule="evenodd" d="M24.4716 108.078C24.6307 107.799 24.8345 107.536 24.9409 107.239C25.4576 105.798 25.9412 104.344 26.4552 102.901C26.5133 102.737 26.6903 102.615 26.8109 102.474L26.8217 105.728L25.7329 108.52L24.4716 108.078Z" fill="#1CC89F"/>
<path fill-rule="evenodd" clip-rule="evenodd" d="M25.7329 108.521L26.8217 105.729L27.046 109.032L25.7329 108.521Z" fill="#09D7A5"/>
<path fill-rule="evenodd" clip-rule="evenodd" d="M27.5954 96.4382C27.4202 95.6811 27.7107 95.0813 28.2363 94.5637L28.5376 94.7693L27.5954 96.4382Z" fill="#1ED0A6"/>
<path fill-rule="evenodd" clip-rule="evenodd" d="M24.7824 82.3809L24.7234 82.3711L24.6644 82.3801L24.8029 81.8804L24.7824 82.3809Z" fill="#4FAA41"/>
</svg>
