<svg width="94" height="96" viewBox="0 0 94 96" fill="none" xmlns="http://www.w3.org/2000/svg">
<path d="M69.6965 70.0285C70.3116 64.9093 70.1275 64.1578 73.9405 64.9876L74.9082 65.0722C77.8405 65.2055 81.6762 64.6005 83.9298 63.5536C88.7811 61.3023 91.6569 57.545 86.8746 58.5315C75.9637 60.7828 75.2138 57.0882 75.2138 57.0882C86.7351 39.9939 91.5511 18.2937 87.3933 12.9817C76.0546 -1.50623 56.4278 5.34477 56.0995 5.52187L55.9945 5.54146C53.8388 5.09402 51.4261 4.82681 48.7157 4.78293C43.7782 4.70144 40.0318 6.07744 37.1897 8.23233C37.1897 8.23233 2.17616 -6.19294 3.80526 26.3734C4.15161 33.3012 13.735 78.7946 25.1662 65.0534C29.3443 60.029 33.3814 55.7803 33.3814 55.7803C35.3859 57.1117 37.7868 57.7918 40.3037 57.5473L40.4988 57.3812C40.4377 58.005 40.4644 58.6154 40.5764 59.3379C37.6324 62.6282 38.4975 63.2057 32.6103 64.4171C26.6534 65.6443 30.153 67.8297 32.4372 68.401C35.2072 69.0937 41.6147 70.0747 45.9449 64.0144L45.7725 64.7055C46.9275 65.6302 46.8499 71.3481 47.0129 75.433C47.1767 79.5187 47.4501 83.3309 48.2831 85.579C49.1161 87.8264 50.0987 93.6156 57.836 91.9575C64.3022 90.5752 69.2459 88.581 69.6965 70.0285Z" fill="black"/>
<path d="M55.3176 96C51.8956 96 49.667 94.6765 48.3138 93.3984C46.2709 91.4708 45.4607 88.9876 44.9764 87.5042L44.7672 86.8852C43.7924 84.2539 43.4617 80.4652 43.2658 75.5865C43.236 74.8538 43.2157 74.0992 43.1929 73.2991C43.1765 72.7138 43.1561 71.9796 43.1263 71.2116C41.9094 71.7931 40.6086 72.2068 39.2381 72.4403C36.8254 72.8525 34.2317 72.7193 31.5275 72.043C29.6194 71.5658 27.6369 70.5769 26.507 69.0497C23.2135 71.9341 20.0721 71.5431 18.3607 70.9719C15.3415 69.9649 12.6396 67.1354 10.1 62.3233C8.29067 58.895 6.54089 54.4285 4.89847 49.0468C2.03833 39.6749 0.221168 29.8039 0.0597464 26.563C-0.448026 16.4193 2.28282 9.16471 8.1747 5.00302C17.469 -1.56197 31.551 2.29882 36.6852 4.05173C40.1346 1.97284 44.1928 0.961219 48.7784 1.03409C51.2413 1.07406 53.5866 1.29033 55.765 1.679C58.0374 0.964354 62.5259 -0.0613773 67.6639 0.00287784C77.1306 0.115716 84.9752 3.8049 90.3484 10.6716C94.1833 15.5706 92.287 25.8585 90.8162 31.5553C88.7459 39.5683 85.1186 48.0908 80.6631 55.5099C81.873 55.5185 83.6259 55.3735 86.1177 54.8587C91.034 53.844 92.4719 56.48 92.8621 57.6601C94.4254 62.3946 87.63 65.9725 85.5104 66.9567C82.7945 68.2175 78.3663 68.9854 74.7399 68.8193L74.5816 68.8091L73.6287 68.7253L73.5347 69.5198L73.4438 70.2964C73.2001 79.6988 71.857 85.6534 69.0932 89.5878C66.1963 93.7127 62.1701 94.8685 58.6236 95.6286C57.4137 95.8872 56.3143 96 55.3176 96ZM48.1163 61.7795C50.3253 63.5473 50.5188 66.8736 50.692 73.0899C50.7139 73.8657 50.7343 74.5999 50.7617 75.2856C50.8448 77.3621 51.0399 82.2243 51.8016 84.2789C51.9089 84.5696 52.0053 84.8643 52.1072 85.1769C52.9558 87.7753 53.3813 89.0785 57.0509 88.2941C60.1312 87.6335 61.7149 87.0411 62.9545 85.2765C64.756 82.7109 65.7637 77.5502 65.9487 69.9375L69.6966 70.0284L65.9745 69.5818L66.0842 68.6524C66.4408 65.5885 66.6978 63.3756 68.7453 61.9119C70.3885 60.7381 72.2605 60.8517 73.7517 61.1205C72.1132 59.8824 71.6603 58.4304 71.5396 57.8348L71.227 56.295L72.1054 54.9919C77.1651 47.485 81.337 38.259 83.553 29.6785C85.8301 20.8623 85.1359 16.1803 84.4416 15.2948C75.2508 3.55101 59.3131 8.39992 57.6488 8.95001L57.3675 9.10203L55.957 9.36453L55.2345 9.21486C53.2426 8.80112 51.0297 8.57231 48.6578 8.53392C44.931 8.47123 41.9243 9.35199 39.4591 11.2224L37.7485 12.5193L35.7636 11.702C31.5228 9.9679 19.0667 6.48167 12.4939 11.137C8.84546 13.7213 7.18344 18.785 7.5533 26.1876C7.67554 28.6317 9.33599 37.8836 12.0755 46.8566C15.861 59.2571 19.301 63.3764 20.7374 63.8552C20.9881 63.9398 21.6385 63.4344 22.2857 62.6571C26.4937 57.5958 30.4971 53.3761 30.6656 53.1991L32.8361 50.9149L35.4604 52.6584C36.5182 53.3613 37.685 53.7601 38.8832 53.8353L45.1418 48.4975L44.2351 57.7502C44.2148 57.9578 44.2046 58.2407 44.2861 58.7657L44.5588 60.5194L43.3755 61.8421L43.2392 61.9957L46.6776 63.5825L48.1163 61.7795Z" fill="black"/>
<path d="M86.8758 58.5315C75.9642 60.7828 75.2143 57.0881 75.2143 57.0881C86.7355 39.9931 91.5515 18.2921 87.3953 12.9817C76.0566 -1.50551 56.4283 5.34549 56.1007 5.52337L55.9949 5.54218C53.8392 5.09474 51.4265 4.82832 48.7145 4.78444C43.777 4.70373 40.0322 6.07894 37.1901 8.23384C37.1901 8.23384 2.17579 -6.19065 3.80411 26.3749C4.15046 33.3035 13.7339 78.7969 25.165 65.0557C29.3432 60.0313 33.3795 55.7826 33.3795 55.7826C35.3847 57.114 37.7849 57.7941 40.301 57.5496L40.4969 57.3835C40.4358 58.0073 40.464 58.6177 40.5753 59.3402C37.6305 62.6305 38.4956 63.208 32.6084 64.4194C26.6515 65.6466 30.1511 67.832 32.436 68.4033C35.2053 69.096 41.6135 70.077 45.9429 64.0167L45.7697 64.7078C46.924 65.6325 47.7342 70.7196 47.5987 75.3311C47.4623 79.9425 47.3714 83.1091 48.2812 85.5821C49.1901 88.0551 50.096 93.6187 57.8348 91.9606C64.3011 90.5752 67.6517 86.984 68.1188 80.9941C68.4494 76.7353 69.1978 77.3653 69.2456 73.5578L69.8466 71.7555C70.5393 65.9827 69.9563 64.1209 73.9409 64.9868L74.9086 65.0714C77.8409 65.2046 81.6782 64.5997 83.931 63.5528C88.7815 61.3031 91.6581 57.5449 86.8758 58.5315Z" fill="url(#paint0_linear_20_979)"/>
<path d="M55.7087 93.6892C49.2581 93.6892 47.2145 88.5809 46.3784 86.4918C45.1544 83.4303 44.8903 71.5494 45.163 61.8061C45.1818 61.1157 45.7539 60.5704 46.4481 60.5915C47.1385 60.6103 47.6823 61.1855 47.6627 61.8758C47.3485 73.1134 47.7944 83.2971 48.7002 85.5632C50.1138 89.0965 52.2577 92.187 58.3189 90.8886C64.0728 89.6544 66.2277 87.4729 67.1877 81.9085C67.9242 77.6387 69.3809 65.4914 69.5604 63.0943C69.6121 62.4063 70.2092 61.8884 70.9003 61.9409C71.5883 61.9926 72.1047 62.5928 72.0538 63.2808C71.8665 65.7766 70.4169 77.9004 69.6521 82.334C68.519 88.9061 65.5891 91.8869 58.8431 93.3334C57.6967 93.5787 56.6553 93.6884 55.7087 93.6892ZM20.732 68.7386C20.1169 68.7386 19.5582 68.625 19.0739 68.4643C14.884 67.0664 10.8931 60.2428 7.21178 48.1809C4.40963 38.9994 2.634 29.416 2.47806 26.3012C2.01652 17.0673 4.39396 10.5344 9.54612 6.88521C19.7384 -0.336438 36.8843 6.54042 37.6091 6.83663C38.2478 7.09756 38.5549 7.82788 38.2932 8.46729C38.0323 9.10593 37.302 9.41231 36.6633 9.15216C36.498 9.08477 20.0565 2.49784 10.9864 8.92883C6.58099 12.0523 4.55852 17.8556 4.97461 26.1766C5.10547 28.8009 6.76435 38.1539 9.60254 47.4506C12.889 58.2188 16.6291 65.0134 19.8646 66.0924C20.3723 66.2616 21.9176 66.7765 24.1265 64.1201C28.2835 59.1191 32.102 55.1275 32.1404 55.0883C32.6184 54.5899 33.4098 54.5735 33.9082 55.0515C34.4066 55.5295 34.4238 56.3209 33.9458 56.8185C33.9082 56.8577 30.1477 60.789 26.0495 65.7194C24.1085 68.0537 22.2483 68.7386 20.732 68.7386ZM75.1365 58.2031C74.8959 58.2031 74.653 58.1341 74.4383 57.99C73.8663 57.6036 73.7142 56.8271 74.1006 56.2543C85.7472 38.972 89.8352 18.0899 86.3341 13.6155C81.9271 7.9846 75.7046 5.04375 67.838 4.87371C62.0135 4.74833 57.384 6.2356 56.6271 6.49498L56.4367 6.57255C55.6758 6.81155 55.092 6.39468 54.8718 5.90728C54.6109 5.33055 54.8248 4.64882 55.3663 4.32049C55.4023 4.29933 55.5167 4.25075 55.7024 4.18258C56.9883 3.71163 61.6884 2.30115 67.5097 2.36776C76.2139 2.46023 83.4042 5.81638 88.3017 12.075C90.6188 15.0362 90.6243 21.8582 88.3166 30.7928C85.9642 39.9021 81.5377 49.6916 76.1732 57.6522C75.9334 58.0103 75.5385 58.2031 75.1365 58.2031ZM75.732 66.2036C73.7432 66.2036 71.9605 65.9231 70.8933 65.2837C69.7962 64.6263 69.587 63.733 69.5596 63.2589C69.2603 58.0009 72.1612 57.0857 73.6406 56.668C73.4345 56.3562 73.1414 55.9894 72.8382 55.611C71.9754 54.5327 70.7938 53.0564 69.8832 50.8482C69.7406 50.5035 69.294 49.7018 68.7768 48.7733C65.9723 43.7441 60.1368 33.2792 63.8856 27.9201C65.6205 25.44 69.0753 24.4637 74.1656 25.0083C72.6681 20.4462 65.5374 6.17527 48.6171 5.89787C43.5285 5.81324 39.355 7.37809 36.219 10.5446C29.198 17.6354 29.4519 30.4653 29.4558 30.5938C29.4738 31.2841 28.9292 31.8585 28.2389 31.8765C27.5485 31.8985 26.9749 31.3499 26.9561 30.6596C26.9404 30.0899 26.6787 16.6261 34.4426 8.78465C38.0762 5.11506 42.8593 3.30338 48.6587 3.39819C59.4833 3.57607 66.4511 9.07928 70.3894 13.6641C74.6828 18.6611 76.7875 24.173 76.9607 26.0129C77.09 27.381 76.1081 27.6545 75.9099 27.6952L75.4585 27.7054C70.4631 26.9054 67.2582 27.4609 65.9331 29.3541C63.0816 33.4296 68.602 43.3288 70.9591 47.5563C71.5609 48.6346 71.995 49.4142 72.1941 49.8954C72.9683 51.7729 73.9783 53.0345 74.7893 54.0485C75.5032 54.9402 76.1215 55.7136 76.3424 56.621C76.4451 56.8012 77.9018 58.9561 86.5457 57.1719C88.7123 56.7252 90.0115 57.1068 90.4088 58.3081C91.1901 60.6707 86.8066 63.4266 84.3798 64.5534C82.2053 65.5642 78.7348 66.2036 75.732 66.2036ZM72.0522 63.0528C72.3265 63.3294 73.6986 63.8066 76.5399 63.6844C79.0662 63.5762 81.7305 63.0269 83.329 62.2849C85.3734 61.3351 86.7384 60.2734 87.4452 59.5485L87.0534 59.6206C81.5267 60.7616 77.6173 60.6095 75.4342 59.1685C75.2783 59.0658 75.138 58.9593 75.0111 58.8543C74.7745 58.9475 74.5558 59.0086 74.3999 59.0525C73.1618 59.3997 71.8814 59.7593 72.0522 63.0528ZM36.3499 70.0386C34.977 70.0386 33.5321 69.8513 32.0566 69.4822C30.5278 69.0998 27.9505 67.9487 27.9897 66.0579C28.0344 63.9367 31.1194 63.3004 32.2807 63.0614C36.4761 62.1971 36.7495 61.8508 38.0605 60.1856C38.4429 59.7006 38.9185 59.0964 39.5674 58.3724C40.5304 57.2941 41.5828 56.748 42.6955 56.748C43.4705 56.748 44.106 57.0105 44.526 57.1852C45.8644 57.74 46.981 59.0815 47.4402 60.6855C47.8547 62.1328 47.6565 63.5261 46.8838 64.6082C44.3473 68.1603 40.7044 70.0386 36.3499 70.0386ZM30.6908 66.1652C31.0677 66.4567 31.8231 66.8462 32.6639 67.0562C33.9419 67.3759 35.1816 67.5381 36.3507 67.5381C39.9129 67.5381 42.7731 66.0634 44.8504 63.1547C45.2837 62.5482 45.1536 61.7779 45.0377 61.3728C44.7947 60.5241 44.1914 59.7523 43.57 59.4945C43.233 59.355 42.9533 59.2484 42.6963 59.2484C42.5584 59.2484 42.1383 59.2484 41.4315 60.0391C40.8344 60.7059 40.4042 61.2521 40.0258 61.7332C38.3927 63.8066 37.6444 64.5103 32.7861 65.5109C31.6005 65.7539 30.9924 66.0015 30.6908 66.1652ZM40.3047 60.398C39.6982 60.398 39.1654 59.9552 39.0706 59.337C39.0392 59.1293 39.0188 58.9209 39.0079 58.7109C35.8233 58.6513 32.7508 57.2847 30.4181 54.8509C27.4686 51.7737 26.1263 47.5101 26.7359 43.1541C27.3981 38.4235 27.1505 34.2477 27.0172 32.0043C26.9804 31.3805 26.9538 30.9299 26.9553 30.6181C26.9577 30.2223 26.9655 29.1731 30.4729 27.3951C31.7204 26.7628 34.2216 25.6595 36.9541 25.3766C41.4809 24.9088 44.4649 26.925 45.3582 31.0545C47.7693 42.2036 45.5494 47.1348 43.9281 50.7362C43.6264 51.4069 43.3412 52.0401 43.1131 52.6537L42.9118 53.1943C42.0553 55.4911 41.3148 57.4751 41.542 58.9569C41.647 59.6394 41.1784 60.2773 40.4959 60.3823L40.3047 60.398ZM29.4636 30.9644L29.5122 31.8569C29.6501 34.1874 29.9072 38.5238 29.2113 43.5012C28.709 47.094 29.8061 50.6006 32.2227 53.1207C34.1323 55.1126 36.6453 56.212 39.2281 56.212H39.2813C39.5705 54.9935 40.0508 53.7068 40.568 52.3206L40.7678 51.7831C41.0256 51.0904 41.3273 50.4196 41.647 49.7097C43.2072 46.243 45.1497 41.9277 42.9125 31.5835C42.4698 29.5343 41.3955 28.3488 39.63 27.9577C36.0036 27.1569 30.5991 29.8846 29.4636 30.9644ZM37.0097 30.4339C36.947 30.8759 37.8192 32.056 38.9569 32.2135C40.0924 32.3725 41.064 31.4495 41.1259 31.0075C41.1878 30.5656 40.3165 30.0782 39.1787 29.9199C38.0417 29.7616 37.07 29.992 37.0097 30.4339ZM39.2179 32.6484L38.899 32.6264C38.1937 32.5285 37.4806 32.0842 36.9925 31.4369C36.8208 31.2097 36.5411 30.7693 36.5967 30.3759C36.6759 29.7992 37.3796 29.4536 38.4774 29.4536C38.7226 29.4536 38.9781 29.4717 39.2351 29.5077C39.8353 29.5908 40.3925 29.7639 40.8039 29.9935C41.517 30.3916 41.5695 30.8359 41.5373 31.0655C41.4496 31.7026 40.4364 32.6484 39.2179 32.6484ZM37.4242 30.5076C37.4595 30.7803 38.1349 31.6798 39.0141 31.8013L39.2187 31.8154C40.0305 31.8154 40.637 31.1768 40.7083 30.9676C40.6331 30.8249 40.1112 30.4707 39.1215 30.3328C38.9021 30.3015 38.6858 30.2866 38.4782 30.2866C37.8419 30.2866 37.5041 30.43 37.4242 30.5076ZM71.593 29.532C71.6549 29.9739 70.7836 31.154 69.6466 31.3123C68.5104 31.4706 67.5379 30.5483 67.4752 30.1064C67.4157 29.6644 68.287 29.1762 69.4233 29.0187C70.5595 28.8597 71.5304 29.0908 71.593 29.532ZM69.3841 31.538C68.2902 31.538 67.3459 30.687 67.2684 30.1346C67.1782 29.4717 68.2698 28.9678 69.3935 28.8119C69.6411 28.7774 69.8864 28.7602 70.1222 28.7602C71.0923 28.7602 71.7349 29.0446 71.7991 29.5038C71.8407 29.8008 71.6126 30.2592 71.22 30.6729C70.9607 30.9448 70.4161 31.4158 69.674 31.5184L69.3841 31.538ZM70.123 29.177C69.9067 29.177 69.6811 29.1935 69.4523 29.2248C68.3231 29.3823 67.6492 29.8353 67.6821 30.0782C67.7197 30.3454 68.4406 31.1219 69.3849 31.1219L69.6176 31.1055C70.2343 31.0201 70.6974 30.6173 70.9184 30.3853C71.2655 30.021 71.4034 29.6777 71.387 29.561C71.365 29.4058 70.9481 29.177 70.123 29.177ZM73.23 54.9128C72.991 54.9128 72.7496 54.8438 72.5357 54.7012C71.9621 54.3172 71.8077 53.5407 72.1925 52.9671C74.8552 48.9903 74.3678 44.9352 73.8968 41.0133C73.6954 39.3427 73.4886 37.6148 73.5418 35.9567C73.5967 34.2508 73.8138 32.8435 74.023 31.4824C74.2714 29.8697 74.5065 28.3464 74.4093 26.5379C74.3717 25.8483 74.9006 25.2598 75.5902 25.2222C76.2821 25.1854 76.869 25.7135 76.9058 26.4031C77.0171 28.4702 76.7515 30.1941 76.4945 31.8624C76.2962 33.1499 76.0909 34.4812 76.0415 36.0367C75.9937 37.5051 76.181 39.0645 76.3793 40.7147C76.8808 44.885 77.4489 49.6117 74.2706 54.358C74.0292 54.7176 73.6335 54.9128 73.23 54.9128Z" fill="#21C49D"/>
<defs>
<linearGradient id="paint0_linear_20_979" x1="46.5386" y1="3.75073" x2="69.5" y2="162.5" gradientUnits="userSpaceOnUse">
<stop stop-color="#FF0066"/>
<stop offset="1"/>
</linearGradient>
</defs>
</svg>
