<svg width="81" height="80" viewBox="0 0 81 80" fill="none" xmlns="http://www.w3.org/2000/svg">
<path d="M39.7598 0C19.4262 0 20.6958 8.85325 20.6958 8.85325L20.7184 18.0255H40.1223V20.7792H13.0114C13.0114 20.7792 0 19.2976 0 39.8964C0 60.4959 11.3567 59.7653 11.3567 59.7653H18.1343V50.2064C18.1343 50.2064 17.769 38.8041 29.3098 38.8041H48.555C48.555 38.8041 59.3675 38.9795 59.3675 28.3121V10.6743C59.3675 10.6743 61.0097 0 39.7598 0ZM29.0604 6.16814C29.519 6.16773 29.9731 6.2581 30.3968 6.43408C30.8205 6.61007 31.2055 6.86821 31.5297 7.19374C31.8539 7.51927 32.111 7.9058 32.2863 8.33121C32.4616 8.75661 32.5516 9.21254 32.5512 9.67291C32.5516 10.1333 32.4616 10.5892 32.2863 11.0146C32.111 11.44 31.8539 11.8266 31.5297 12.1521C31.2055 12.4776 30.8205 12.7358 30.3968 12.9117C29.9731 13.0877 29.519 13.1781 29.0604 13.1777C28.6019 13.1781 28.1478 13.0877 27.7241 12.9117C27.3004 12.7358 26.9154 12.4776 26.5912 12.1521C26.2669 11.8266 26.0098 11.44 25.8346 11.0146C25.6593 10.5892 25.5693 10.1333 25.5697 9.67291C25.5693 9.21254 25.6593 8.75661 25.8346 8.33121C26.0098 7.9058 26.2669 7.51927 26.5912 7.19374C26.9154 6.86821 27.3004 6.61007 27.7241 6.43408C28.1478 6.2581 28.6019 6.16773 29.0604 6.16814Z" fill="url(#paint0_linear_20_816)"/>
<path d="M40.588 80C60.9216 80 59.652 71.1467 59.652 71.1467L59.6294 61.9748H40.2252V59.2211H67.336C67.336 59.2211 80.3475 60.7026 80.3475 40.1032C80.3475 19.5041 68.9908 20.2347 68.9908 20.2347H62.2131V29.7933C62.2131 29.7933 62.5785 41.1956 51.0377 41.1956H31.7925C31.7925 41.1956 20.9799 41.0202 20.9799 51.6878V69.326C20.9799 69.326 19.338 80 40.5877 80H40.588ZM51.2874 73.8324C50.8288 73.8329 50.3747 73.7425 49.951 73.5665C49.5273 73.3905 49.1423 73.1324 48.8181 72.8068C48.4939 72.4813 48.2368 72.0948 48.0615 71.6694C47.8862 71.244 47.7962 70.788 47.7966 70.3277C47.7961 69.8673 47.8861 69.4113 48.0614 68.9859C48.2366 68.5604 48.4938 68.1739 48.818 67.8483C49.1422 67.5227 49.5272 67.2646 49.9509 67.0886C50.3747 66.9126 50.8288 66.8222 51.2874 66.8226C51.7459 66.8222 52.2 66.9125 52.6237 67.0885C53.0474 67.2645 53.4324 67.5227 53.7566 67.8482C54.0808 68.1737 54.3379 68.5602 54.5132 68.9857C54.6885 69.4111 54.7785 69.867 54.7781 70.3274C54.7785 70.7877 54.6885 71.2437 54.5132 71.6691C54.3379 72.0945 54.0808 72.481 53.7566 72.8065C53.4324 73.1321 53.0474 73.3902 52.6237 73.5662C52.2 73.7422 51.7459 73.8329 51.2874 73.8324Z" fill="url(#paint1_linear_20_816)"/>
<defs>
<linearGradient id="paint0_linear_20_816" x1="-1.51716e-06" y1="-25" x2="110.157" y2="80.3131" gradientUnits="userSpaceOnUse">
<stop offset="0.315417" stop-color="#FF2079"/>
<stop offset="1"/>
</linearGradient>
<linearGradient id="paint1_linear_20_816" x1="75.5" y1="71" x2="54.6583" y2="16.1298" gradientUnits="userSpaceOnUse">
<stop offset="0.342515" stop-color="#21C49D"/>
<stop offset="1"/>
</linearGradient>
</defs>
</svg>
